<svg width="360" height="640" viewBox="0 0 360 640" fill="none" xmlns="http://www.w3.org/2000/svg">
<g clip-path="url(#clip0)">
<rect width="360" height="640" fill="#FBFBFB"/>
<rect x="30" y="211" width="237" height="30" rx="12" fill="#F0F0F0"/>
<path d="M32.324 188.242V194.416C32.324 195.284 32.534 195.928 32.954 196.348C33.3833 196.768 33.976 196.978 34.732 196.978C35.4787 196.978 36.062 196.768 36.482 196.348C36.9113 195.928 37.126 195.284 37.126 194.416V188.242H38.4V194.402C38.4 195.214 38.2367 195.9 37.91 196.46C37.5833 197.011 37.14 197.421 36.58 197.692C36.0293 197.963 35.4087 198.098 34.718 198.098C34.0273 198.098 33.402 197.963 32.842 197.692C32.2913 197.421 31.8527 197.011 31.526 196.46C31.2087 195.9 31.05 195.214 31.05 194.402V188.242H32.324ZM43.2413 198.126C42.6533 198.126 42.1259 198.028 41.6593 197.832C41.1926 197.627 40.8239 197.347 40.5533 196.992C40.2826 196.628 40.1333 196.213 40.1053 195.746H41.4213C41.4586 196.129 41.6359 196.441 41.9533 196.684C42.2799 196.927 42.7046 197.048 43.2273 197.048C43.7126 197.048 44.0953 196.941 44.3753 196.726C44.6553 196.511 44.7953 196.241 44.7953 195.914C44.7953 195.578 44.6459 195.331 44.3473 195.172C44.0486 195.004 43.5866 194.841 42.9613 194.682C42.3919 194.533 41.9253 194.383 41.5613 194.234C41.2066 194.075 40.8986 193.847 40.6373 193.548C40.3853 193.24 40.2593 192.839 40.2593 192.344C40.2593 191.952 40.3759 191.593 40.6093 191.266C40.8426 190.939 41.1739 190.683 41.6033 190.496C42.0326 190.3 42.5226 190.202 43.0733 190.202C43.9226 190.202 44.6086 190.417 45.1313 190.846C45.6539 191.275 45.9339 191.863 45.9713 192.61H44.6973C44.6693 192.209 44.5059 191.887 44.2073 191.644C43.9179 191.401 43.5259 191.28 43.0313 191.28C42.5739 191.28 42.2099 191.378 41.9393 191.574C41.6686 191.77 41.5333 192.027 41.5333 192.344C41.5333 192.596 41.6126 192.806 41.7713 192.974C41.9393 193.133 42.1446 193.263 42.3873 193.366C42.6393 193.459 42.9846 193.567 43.4233 193.688C43.9739 193.837 44.4219 193.987 44.7673 194.136C45.1126 194.276 45.4066 194.491 45.6493 194.78C45.9013 195.069 46.0319 195.447 46.0413 195.914C46.0413 196.334 45.9246 196.712 45.6913 197.048C45.4579 197.384 45.1266 197.65 44.6973 197.846C44.2773 198.033 43.7919 198.126 43.2413 198.126ZM54.8397 193.87C54.8397 194.113 54.8257 194.369 54.7977 194.64H48.6657C48.7124 195.396 48.9691 195.989 49.4357 196.418C49.9117 196.838 50.4857 197.048 51.1577 197.048C51.7084 197.048 52.1657 196.922 52.5297 196.67C52.9031 196.409 53.1644 196.063 53.3137 195.634H54.6857C54.4804 196.371 54.0697 196.973 53.4537 197.44C52.8377 197.897 52.0724 198.126 51.1577 198.126C50.4297 198.126 49.7764 197.963 49.1977 197.636C48.6284 197.309 48.1804 196.847 47.8537 196.25C47.5271 195.643 47.3637 194.943 47.3637 194.15C47.3637 193.357 47.5224 192.661 47.8397 192.064C48.1571 191.467 48.6004 191.009 49.1697 190.692C49.7484 190.365 50.4111 190.202 51.1577 190.202C51.8857 190.202 52.5297 190.361 53.0897 190.678C53.6497 190.995 54.0791 191.434 54.3777 191.994C54.6857 192.545 54.8397 193.17 54.8397 193.87ZM53.5237 193.604C53.5237 193.119 53.4164 192.703 53.2017 192.358C52.9871 192.003 52.6931 191.737 52.3197 191.56C51.9557 191.373 51.5497 191.28 51.1017 191.28C50.4577 191.28 49.9071 191.485 49.4497 191.896C49.0017 192.307 48.7451 192.876 48.6797 193.604H53.5237ZM57.7954 191.574C58.0194 191.135 58.3367 190.795 58.7474 190.552C59.1674 190.309 59.676 190.188 60.2734 190.188V191.504H59.9374C58.5094 191.504 57.7954 192.279 57.7954 193.828V198H56.5214V190.328H57.7954V191.574ZM65.482 190.188C66.4153 190.188 67.1713 190.473 67.75 191.042C68.3287 191.602 68.618 192.414 68.618 193.478V198H67.358V193.66C67.358 192.895 67.1667 192.311 66.784 191.91C66.4013 191.499 65.8787 191.294 65.216 191.294C64.544 191.294 64.0073 191.504 63.606 191.924C63.214 192.344 63.018 192.955 63.018 193.758V198H61.744V190.328H63.018V191.42C63.27 191.028 63.6107 190.725 64.04 190.51C64.4787 190.295 64.9593 190.188 65.482 190.188ZM70.2231 194.136C70.2231 193.352 70.3818 192.666 70.6991 192.078C71.0164 191.481 71.4504 191.019 72.0011 190.692C72.5611 190.365 73.1818 190.202 73.8631 190.202C74.5351 190.202 75.1184 190.347 75.6131 190.636C76.1078 190.925 76.4764 191.289 76.7191 191.728V190.328H78.0071V198H76.7191V196.572C76.4671 197.02 76.0891 197.393 75.5851 197.692C75.0904 197.981 74.5118 198.126 73.8491 198.126C73.1678 198.126 72.5518 197.958 72.0011 197.622C71.4504 197.286 71.0164 196.815 70.6991 196.208C70.3818 195.601 70.2231 194.911 70.2231 194.136ZM76.7191 194.15C76.7191 193.571 76.6024 193.067 76.3691 192.638C76.1358 192.209 75.8184 191.882 75.4171 191.658C75.0251 191.425 74.5911 191.308 74.1151 191.308C73.6391 191.308 73.2051 191.42 72.8131 191.644C72.4211 191.868 72.1084 192.195 71.8751 192.624C71.6418 193.053 71.5251 193.557 71.5251 194.136C71.5251 194.724 71.6418 195.237 71.8751 195.676C72.1084 196.105 72.4211 196.437 72.8131 196.67C73.2051 196.894 73.6391 197.006 74.1151 197.006C74.5911 197.006 75.0251 196.894 75.4171 196.67C75.8184 196.437 76.1358 196.105 76.3691 195.676C76.6024 195.237 76.7191 194.729 76.7191 194.15ZM89.386 190.188C89.9834 190.188 90.5154 190.314 90.982 190.566C91.4487 190.809 91.8174 191.177 92.088 191.672C92.3587 192.167 92.494 192.769 92.494 193.478V198H91.234V193.66C91.234 192.895 91.0427 192.311 90.66 191.91C90.2867 191.499 89.778 191.294 89.134 191.294C88.4714 191.294 87.944 191.509 87.552 191.938C87.16 192.358 86.964 192.969 86.964 193.772V198H85.704V193.66C85.704 192.895 85.5127 192.311 85.13 191.91C84.7567 191.499 84.248 191.294 83.604 191.294C82.9414 191.294 82.414 191.509 82.022 191.938C81.63 192.358 81.434 192.969 81.434 193.772V198H80.16V190.328H81.434V191.434C81.686 191.033 82.022 190.725 82.442 190.51C82.8714 190.295 83.3427 190.188 83.856 190.188C84.5 190.188 85.0694 190.333 85.564 190.622C86.0587 190.911 86.4274 191.336 86.67 191.896C86.8847 191.355 87.2394 190.935 87.734 190.636C88.2287 190.337 88.7794 190.188 89.386 190.188ZM101.584 193.87C101.584 194.113 101.57 194.369 101.542 194.64H95.4099C95.4565 195.396 95.7132 195.989 96.1799 196.418C96.6559 196.838 97.2299 197.048 97.9019 197.048C98.4525 197.048 98.9099 196.922 99.2739 196.67C99.6472 196.409 99.9085 196.063 100.058 195.634H101.43C101.225 196.371 100.814 196.973 100.198 197.44C99.5819 197.897 98.8165 198.126 97.9019 198.126C97.1739 198.126 96.5205 197.963 95.9419 197.636C95.3725 197.309 94.9245 196.847 94.5979 196.25C94.2712 195.643 94.1079 194.943 94.1079 194.15C94.1079 193.357 94.2665 192.661 94.5839 192.064C94.9012 191.467 95.3445 191.009 95.9139 190.692C96.4925 190.365 97.1552 190.202 97.9019 190.202C98.6299 190.202 99.2739 190.361 99.8339 190.678C100.394 190.995 100.823 191.434 101.122 191.994C101.43 192.545 101.584 193.17 101.584 193.87ZM100.268 193.604C100.268 193.119 100.161 192.703 99.9459 192.358C99.7312 192.003 99.4372 191.737 99.0639 191.56C98.6999 191.373 98.2939 191.28 97.8459 191.28C97.2019 191.28 96.6512 191.485 96.1939 191.896C95.7459 192.307 95.4892 192.876 95.4239 193.604H100.268Z" fill="#282828"/>
<rect x="31" y="300" width="237" height="30" rx="12" fill="#F0F0F0"/>
<path d="M38.602 278.098C38.602 278.91 38.322 279.587 37.762 280.128C37.2113 280.66 36.3667 280.926 35.228 280.926H33.352V285H32.078V275.242H35.228C36.3293 275.242 37.1647 275.508 37.734 276.04C38.3127 276.572 38.602 277.258 38.602 278.098ZM35.228 279.876C35.9373 279.876 36.46 279.722 36.796 279.414C37.132 279.106 37.3 278.667 37.3 278.098C37.3 276.894 36.6093 276.292 35.228 276.292H33.352V279.876H35.228ZM39.7094 281.136C39.7094 280.352 39.8681 279.666 40.1854 279.078C40.5028 278.481 40.9368 278.019 41.4874 277.692C42.0474 277.365 42.6681 277.202 43.3494 277.202C44.0214 277.202 44.6048 277.347 45.0994 277.636C45.5941 277.925 45.9628 278.289 46.2054 278.728V277.328H47.4934V285H46.2054V283.572C45.9534 284.02 45.5754 284.393 45.0714 284.692C44.5768 284.981 43.9981 285.126 43.3354 285.126C42.6541 285.126 42.0381 284.958 41.4874 284.622C40.9368 284.286 40.5028 283.815 40.1854 283.208C39.8681 282.601 39.7094 281.911 39.7094 281.136ZM46.2054 281.15C46.2054 280.571 46.0888 280.067 45.8554 279.638C45.6221 279.209 45.3048 278.882 44.9034 278.658C44.5114 278.425 44.0774 278.308 43.6014 278.308C43.1254 278.308 42.6914 278.42 42.2994 278.644C41.9074 278.868 41.5948 279.195 41.3614 279.624C41.1281 280.053 41.0114 280.557 41.0114 281.136C41.0114 281.724 41.1281 282.237 41.3614 282.676C41.5948 283.105 41.9074 283.437 42.2994 283.67C42.6914 283.894 43.1254 284.006 43.6014 284.006C44.0774 284.006 44.5114 283.894 44.9034 283.67C45.3048 283.437 45.6221 283.105 45.8554 282.676C46.0888 282.237 46.2054 281.729 46.2054 281.15ZM52.3624 285.126C51.7744 285.126 51.247 285.028 50.7804 284.832C50.3137 284.627 49.945 284.347 49.6744 283.992C49.4037 283.628 49.2544 283.213 49.2264 282.746H50.5424C50.5797 283.129 50.757 283.441 51.0744 283.684C51.401 283.927 51.8257 284.048 52.3484 284.048C52.8337 284.048 53.2164 283.941 53.4964 283.726C53.7764 283.511 53.9164 283.241 53.9164 282.914C53.9164 282.578 53.767 282.331 53.4684 282.172C53.1697 282.004 52.7077 281.841 52.0824 281.682C51.513 281.533 51.0464 281.383 50.6824 281.234C50.3277 281.075 50.0197 280.847 49.7584 280.548C49.5064 280.24 49.3804 279.839 49.3804 279.344C49.3804 278.952 49.497 278.593 49.7304 278.266C49.9637 277.939 50.295 277.683 50.7244 277.496C51.1537 277.3 51.6437 277.202 52.1944 277.202C53.0437 277.202 53.7297 277.417 54.2524 277.846C54.775 278.275 55.055 278.863 55.0924 279.61H53.8184C53.7904 279.209 53.627 278.887 53.3284 278.644C53.039 278.401 52.647 278.28 52.1524 278.28C51.695 278.28 51.331 278.378 51.0604 278.574C50.7897 278.77 50.6544 279.027 50.6544 279.344C50.6544 279.596 50.7337 279.806 50.8924 279.974C51.0604 280.133 51.2657 280.263 51.5084 280.366C51.7604 280.459 52.1057 280.567 52.5444 280.688C53.095 280.837 53.543 280.987 53.8884 281.136C54.2337 281.276 54.5277 281.491 54.7704 281.78C55.0224 282.069 55.153 282.447 55.1624 282.914C55.1624 283.334 55.0457 283.712 54.8124 284.048C54.579 284.384 54.2477 284.65 53.8184 284.846C53.3984 285.033 52.913 285.126 52.3624 285.126ZM59.6768 285.126C59.0888 285.126 58.5615 285.028 58.0948 284.832C57.6281 284.627 57.2595 284.347 56.9888 283.992C56.7181 283.628 56.5688 283.213 56.5408 282.746H57.8568C57.8941 283.129 58.0715 283.441 58.3888 283.684C58.7155 283.927 59.1401 284.048 59.6628 284.048C60.1481 284.048 60.5308 283.941 60.8108 283.726C61.0908 283.511 61.2308 283.241 61.2308 282.914C61.2308 282.578 61.0815 282.331 60.7828 282.172C60.4841 282.004 60.0221 281.841 59.3968 281.682C58.8275 281.533 58.3608 281.383 57.9968 281.234C57.6421 281.075 57.3341 280.847 57.0728 280.548C56.8208 280.24 56.6948 279.839 56.6948 279.344C56.6948 278.952 56.8115 278.593 57.0448 278.266C57.2781 277.939 57.6095 277.683 58.0388 277.496C58.4681 277.3 58.9581 277.202 59.5088 277.202C60.3581 277.202 61.0441 277.417 61.5668 277.846C62.0895 278.275 62.3695 278.863 62.4068 279.61H61.1328C61.1048 279.209 60.9415 278.887 60.6428 278.644C60.3535 278.401 59.9615 278.28 59.4668 278.28C59.0095 278.28 58.6455 278.378 58.3748 278.574C58.1041 278.77 57.9688 279.027 57.9688 279.344C57.9688 279.596 58.0481 279.806 58.2068 279.974C58.3748 280.133 58.5801 280.263 58.8228 280.366C59.0748 280.459 59.4201 280.567 59.8588 280.688C60.4095 280.837 60.8575 280.987 61.2028 281.136C61.5481 281.276 61.8421 281.491 62.0848 281.78C62.3368 282.069 62.4675 282.447 62.4768 282.914C62.4768 283.334 62.3601 283.712 62.1268 284.048C61.8935 284.384 61.5621 284.65 61.1328 284.846C60.7128 285.033 60.2275 285.126 59.6768 285.126ZM74.4953 277.328L72.1013 285H70.7853L68.9373 278.91L67.0893 285H65.7733L63.3653 277.328H64.6673L66.4313 283.768L68.3353 277.328H69.6373L71.4993 283.782L73.2353 277.328H74.4953ZM79.1056 285.126C78.387 285.126 77.7336 284.963 77.1456 284.636C76.567 284.309 76.1096 283.847 75.7736 283.25C75.447 282.643 75.2836 281.943 75.2836 281.15C75.2836 280.366 75.4516 279.675 75.7876 279.078C76.133 278.471 76.5996 278.009 77.1876 277.692C77.7756 277.365 78.4336 277.202 79.1616 277.202C79.8896 277.202 80.5476 277.365 81.1356 277.692C81.7236 278.009 82.1856 278.467 82.5216 279.064C82.867 279.661 83.0396 280.357 83.0396 281.15C83.0396 281.943 82.8623 282.643 82.5076 283.25C82.1623 283.847 81.691 284.309 81.0936 284.636C80.4963 284.963 79.8336 285.126 79.1056 285.126ZM79.1056 284.006C79.563 284.006 79.9923 283.899 80.3936 283.684C80.795 283.469 81.117 283.147 81.3596 282.718C81.6116 282.289 81.7376 281.766 81.7376 281.15C81.7376 280.534 81.6163 280.011 81.3736 279.582C81.131 279.153 80.8136 278.835 80.4216 278.63C80.0296 278.415 79.605 278.308 79.1476 278.308C78.681 278.308 78.2516 278.415 77.8596 278.63C77.477 278.835 77.169 279.153 76.9356 279.582C76.7023 280.011 76.5856 280.534 76.5856 281.15C76.5856 281.775 76.6976 282.303 76.9216 282.732C77.155 283.161 77.463 283.483 77.8456 283.698C78.2283 283.903 78.6483 284.006 79.1056 284.006ZM85.9887 278.574C86.2127 278.135 86.5301 277.795 86.9407 277.552C87.3607 277.309 87.8694 277.188 88.4667 277.188V278.504H88.1307C86.7027 278.504 85.9887 279.279 85.9887 280.828V285H84.7147V277.328H85.9887V278.574ZM89.4614 281.136C89.4614 280.352 89.62 279.666 89.9374 279.078C90.2547 278.481 90.6887 278.019 91.2394 277.692C91.7994 277.365 92.4247 277.202 93.1154 277.202C93.7127 277.202 94.268 277.342 94.7814 277.622C95.2947 277.893 95.6867 278.252 95.9574 278.7V274.64H97.2454V285H95.9574V283.558C95.7054 284.015 95.332 284.393 94.8374 284.692C94.3427 284.981 93.764 285.126 93.1014 285.126C92.42 285.126 91.7994 284.958 91.2394 284.622C90.6887 284.286 90.2547 283.815 89.9374 283.208C89.62 282.601 89.4614 281.911 89.4614 281.136ZM95.9574 281.15C95.9574 280.571 95.8407 280.067 95.6074 279.638C95.374 279.209 95.0567 278.882 94.6554 278.658C94.2634 278.425 93.8294 278.308 93.3534 278.308C92.8774 278.308 92.4434 278.42 92.0514 278.644C91.6594 278.868 91.3467 279.195 91.1134 279.624C90.88 280.053 90.7634 280.557 90.7634 281.136C90.7634 281.724 90.88 282.237 91.1134 282.676C91.3467 283.105 91.6594 283.437 92.0514 283.67C92.4434 283.894 92.8774 284.006 93.3534 284.006C93.8294 284.006 94.2634 283.894 94.6554 283.67C95.0567 283.437 95.374 283.105 95.6074 282.676C95.8407 282.237 95.9574 281.729 95.9574 281.15Z" fill="#282828"/>
<path d="M35.6953 349.232H32.1152V353H30.9902V344.469H36.2754V345.395H32.1152V348.312H35.6953V349.232ZM37.0371 349.771C37.0371 349.15 37.1582 348.592 37.4004 348.096C37.6465 347.6 37.9863 347.217 38.4199 346.947C38.8574 346.678 39.3555 346.543 39.9141 346.543C40.7773 346.543 41.4746 346.842 42.0059 347.439C42.541 348.037 42.8086 348.832 42.8086 349.824V349.9C42.8086 350.518 42.6895 351.072 42.4512 351.564C42.2168 352.053 41.8789 352.434 41.4375 352.707C41 352.98 40.4961 353.117 39.9258 353.117C39.0664 353.117 38.3691 352.818 37.834 352.221C37.3027 351.623 37.0371 350.832 37.0371 349.848V349.771ZM38.127 349.9C38.127 350.604 38.2891 351.168 38.6133 351.594C38.9414 352.02 39.3789 352.232 39.9258 352.232C40.4766 352.232 40.9141 352.018 41.2383 351.588C41.5625 351.154 41.7246 350.549 41.7246 349.771C41.7246 349.076 41.5586 348.514 41.2266 348.084C40.8984 347.65 40.4609 347.434 39.9141 347.434C39.3789 347.434 38.9473 347.646 38.6191 348.072C38.291 348.498 38.127 349.107 38.127 349.9ZM47.2324 347.633C47.0684 347.605 46.8906 347.592 46.6992 347.592C45.9883 347.592 45.5059 347.895 45.252 348.5V353H44.168V346.66H45.2227L45.2402 347.393C45.5957 346.826 46.0996 346.543 46.752 346.543C46.9629 346.543 47.123 346.57 47.2324 346.625V347.633ZM47.8594 349.777C47.8594 348.789 48.0879 348.004 48.5449 347.422C49.002 346.836 49.6074 346.543 50.3613 346.543C51.1348 346.543 51.7383 346.816 52.1719 347.363L52.2246 346.66H53.2148V352.848C53.2148 353.668 52.9707 354.314 52.4824 354.787C51.998 355.26 51.3457 355.496 50.5254 355.496C50.0684 355.496 49.6211 355.398 49.1836 355.203C48.7461 355.008 48.4121 354.74 48.1816 354.4L48.7441 353.75C49.209 354.324 49.7773 354.611 50.4492 354.611C50.9766 354.611 51.3867 354.463 51.6797 354.166C51.9766 353.869 52.125 353.451 52.125 352.912V352.367C51.6914 352.867 51.0996 353.117 50.3496 353.117C49.6074 353.117 49.0059 352.818 48.5449 352.221C48.0879 351.623 47.8594 350.809 47.8594 349.777ZM48.9492 349.9C48.9492 350.615 49.0957 351.178 49.3887 351.588C49.6816 351.994 50.0918 352.197 50.6191 352.197C51.3027 352.197 51.8047 351.887 52.125 351.266V348.371C51.793 347.766 51.2949 347.463 50.6309 347.463C50.1035 347.463 49.6914 347.668 49.3945 348.078C49.0977 348.488 48.9492 349.096 48.9492 349.9ZM54.5684 349.771C54.5684 349.15 54.6895 348.592 54.9316 348.096C55.1777 347.6 55.5176 347.217 55.9512 346.947C56.3887 346.678 56.8867 346.543 57.4453 346.543C58.3086 346.543 59.0059 346.842 59.5371 347.439C60.0723 348.037 60.3398 348.832 60.3398 349.824V349.9C60.3398 350.518 60.2207 351.072 59.9824 351.564C59.748 352.053 59.4102 352.434 58.9688 352.707C58.5312 352.98 58.0273 353.117 57.457 353.117C56.5977 353.117 55.9004 352.818 55.3652 352.221C54.834 351.623 54.5684 350.832 54.5684 349.848V349.771ZM55.6582 349.9C55.6582 350.604 55.8203 351.168 56.1445 351.594C56.4727 352.02 56.9102 352.232 57.457 352.232C58.0078 352.232 58.4453 352.018 58.7695 351.588C59.0938 351.154 59.2559 350.549 59.2559 349.771C59.2559 349.076 59.0898 348.514 58.7578 348.084C58.4297 347.65 57.9922 347.434 57.4453 347.434C56.9102 347.434 56.4785 347.646 56.1504 348.072C55.8223 348.498 55.6582 349.107 55.6582 349.9ZM63.1699 345.125V346.66H64.3535V347.498H63.1699V351.43C63.1699 351.684 63.2227 351.875 63.3281 352.004C63.4336 352.129 63.6133 352.191 63.8672 352.191C63.9922 352.191 64.1641 352.168 64.3828 352.121V353C64.0977 353.078 63.8203 353.117 63.5508 353.117C63.0664 353.117 62.7012 352.971 62.4551 352.678C62.209 352.385 62.0859 351.969 62.0859 351.43V347.498H60.9316V346.66H62.0859V345.125H63.1699ZM69.8965 349.66V353H68.7715V344.469H71.918C72.8516 344.469 73.582 344.707 74.1094 345.184C74.6406 345.66 74.9062 346.291 74.9062 347.076C74.9062 347.904 74.6465 348.543 74.127 348.992C73.6113 349.438 72.8711 349.66 71.9062 349.66H69.8965ZM69.8965 348.74H71.918C72.5195 348.74 72.9805 348.6 73.3008 348.318C73.6211 348.033 73.7812 347.623 73.7812 347.088C73.7812 346.58 73.6211 346.174 73.3008 345.869C72.9805 345.564 72.541 345.406 71.9824 345.395H69.8965V348.74ZM80.0156 353C79.9531 352.875 79.9023 352.652 79.8633 352.332C79.3594 352.855 78.7578 353.117 78.0586 353.117C77.4336 353.117 76.9199 352.941 76.5176 352.59C76.1191 352.234 75.9199 351.785 75.9199 351.242C75.9199 350.582 76.1699 350.07 76.6699 349.707C77.1738 349.34 77.8809 349.156 78.791 349.156H79.8457V348.658C79.8457 348.279 79.7324 347.979 79.5059 347.756C79.2793 347.529 78.9453 347.416 78.5039 347.416C78.1172 347.416 77.793 347.514 77.5312 347.709C77.2695 347.904 77.1387 348.141 77.1387 348.418H76.0488C76.0488 348.102 76.1602 347.797 76.3828 347.504C76.6094 347.207 76.9141 346.973 77.2969 346.801C77.6836 346.629 78.1074 346.543 78.5684 346.543C79.2988 346.543 79.8711 346.727 80.2852 347.094C80.6992 347.457 80.9141 347.959 80.9297 348.6V351.518C80.9297 352.1 81.0039 352.562 81.1523 352.906V353H80.0156ZM78.2168 352.174C78.5566 352.174 78.8789 352.086 79.1836 351.91C79.4883 351.734 79.709 351.506 79.8457 351.225V349.924H78.9961C77.668 349.924 77.0039 350.312 77.0039 351.09C77.0039 351.43 77.1172 351.695 77.3438 351.887C77.5703 352.078 77.8613 352.174 78.2168 352.174ZM86.3203 351.318C86.3203 351.025 86.209 350.799 85.9863 350.639C85.7676 350.475 85.3828 350.334 84.832 350.217C84.2852 350.1 83.8496 349.959 83.5254 349.795C83.2051 349.631 82.9668 349.436 82.8105 349.209C82.6582 348.982 82.582 348.713 82.582 348.4C82.582 347.881 82.8008 347.441 83.2383 347.082C83.6797 346.723 84.2422 346.543 84.9258 346.543C85.6445 346.543 86.2266 346.729 86.6719 347.1C87.1211 347.471 87.3457 347.945 87.3457 348.523H86.2559C86.2559 348.227 86.1289 347.971 85.875 347.756C85.625 347.541 85.3086 347.434 84.9258 347.434C84.5312 347.434 84.2227 347.52 84 347.691C83.7773 347.863 83.666 348.088 83.666 348.365C83.666 348.627 83.7695 348.824 83.9766 348.957C84.1836 349.09 84.5566 349.217 85.0957 349.338C85.6387 349.459 86.0781 349.604 86.4141 349.771C86.75 349.939 86.998 350.143 87.1582 350.381C87.3223 350.615 87.4043 350.902 87.4043 351.242C87.4043 351.809 87.1777 352.264 86.7246 352.607C86.2715 352.947 85.6836 353.117 84.9609 353.117C84.4531 353.117 84.0039 353.027 83.6133 352.848C83.2227 352.668 82.916 352.418 82.6934 352.098C82.4746 351.773 82.3652 351.424 82.3652 351.049H83.4492C83.4688 351.412 83.6133 351.701 83.8828 351.916C84.1562 352.127 84.5156 352.232 84.9609 352.232C85.3711 352.232 85.6992 352.15 85.9453 351.986C86.1953 351.818 86.3203 351.596 86.3203 351.318ZM92.5078 351.318C92.5078 351.025 92.3965 350.799 92.1738 350.639C91.9551 350.475 91.5703 350.334 91.0195 350.217C90.4727 350.1 90.0371 349.959 89.7129 349.795C89.3926 349.631 89.1543 349.436 88.998 349.209C88.8457 348.982 88.7695 348.713 88.7695 348.4C88.7695 347.881 88.9883 347.441 89.4258 347.082C89.8672 346.723 90.4297 346.543 91.1133 346.543C91.832 346.543 92.4141 346.729 92.8594 347.1C93.3086 347.471 93.5332 347.945 93.5332 348.523H92.4434C92.4434 348.227 92.3164 347.971 92.0625 347.756C91.8125 347.541 91.4961 347.434 91.1133 347.434C90.7188 347.434 90.4102 347.52 90.1875 347.691C89.9648 347.863 89.8535 348.088 89.8535 348.365C89.8535 348.627 89.957 348.824 90.1641 348.957C90.3711 349.09 90.7441 349.217 91.2832 349.338C91.8262 349.459 92.2656 349.604 92.6016 349.771C92.9375 349.939 93.1855 350.143 93.3457 350.381C93.5098 350.615 93.5918 350.902 93.5918 351.242C93.5918 351.809 93.3652 352.264 92.9121 352.607C92.459 352.947 91.8711 353.117 91.1484 353.117C90.6406 353.117 90.1914 353.027 89.8008 352.848C89.4102 352.668 89.1035 352.418 88.8809 352.098C88.6621 351.773 88.5527 351.424 88.5527 351.049H89.6367C89.6562 351.412 89.8008 351.701 90.0703 351.916C90.3438 352.127 90.7031 352.232 91.1484 352.232C91.5586 352.232 91.8867 352.15 92.1328 351.986C92.3828 351.818 92.5078 351.596 92.5078 351.318ZM101.449 350.293C101.344 351.195 101.01 351.893 100.447 352.385C99.8887 352.873 99.1445 353.117 98.2148 353.117C97.207 353.117 96.3984 352.756 95.7891 352.033C95.1836 351.311 94.8809 350.344 94.8809 349.133V348.312C94.8809 347.52 95.0215 346.822 95.3027 346.221C95.5879 345.619 95.9902 345.158 96.5098 344.838C97.0293 344.514 97.6309 344.352 98.3145 344.352C99.2207 344.352 99.9473 344.605 100.494 345.113C101.041 345.617 101.359 346.316 101.449 347.211H100.318C100.221 346.531 100.008 346.039 99.6797 345.734C99.3555 345.43 98.9004 345.277 98.3145 345.277C97.5957 345.277 97.0312 345.543 96.6211 346.074C96.2148 346.605 96.0117 347.361 96.0117 348.342V349.168C96.0117 350.094 96.2051 350.83 96.5918 351.377C96.9785 351.924 97.5195 352.197 98.2148 352.197C98.8398 352.197 99.3184 352.057 99.6504 351.775C99.9863 351.49 100.209 350.996 100.318 350.293H101.449ZM102.533 349.771C102.533 349.15 102.654 348.592 102.896 348.096C103.143 347.6 103.482 347.217 103.916 346.947C104.354 346.678 104.852 346.543 105.41 346.543C106.273 346.543 106.971 346.842 107.502 347.439C108.037 348.037 108.305 348.832 108.305 349.824V349.9C108.305 350.518 108.186 351.072 107.947 351.564C107.713 352.053 107.375 352.434 106.934 352.707C106.496 352.98 105.992 353.117 105.422 353.117C104.562 353.117 103.865 352.818 103.33 352.221C102.799 351.623 102.533 350.832 102.533 349.848V349.771ZM103.623 349.9C103.623 350.604 103.785 351.168 104.109 351.594C104.438 352.02 104.875 352.232 105.422 352.232C105.973 352.232 106.41 352.018 106.734 351.588C107.059 351.154 107.221 350.549 107.221 349.771C107.221 349.076 107.055 348.514 106.723 348.084C106.395 347.65 105.957 347.434 105.41 347.434C104.875 347.434 104.443 347.646 104.115 348.072C103.787 348.498 103.623 349.107 103.623 349.9ZM109.4 349.777C109.4 348.805 109.631 348.023 110.092 347.434C110.553 346.84 111.156 346.543 111.902 346.543C112.645 346.543 113.232 346.797 113.666 347.305V344H114.75V353H113.754L113.701 352.32C113.268 352.852 112.664 353.117 111.891 353.117C111.156 353.117 110.557 352.816 110.092 352.215C109.631 351.613 109.4 350.828 109.4 349.859V349.777ZM110.484 349.9C110.484 350.619 110.633 351.182 110.93 351.588C111.227 351.994 111.637 352.197 112.16 352.197C112.848 352.197 113.35 351.889 113.666 351.271V348.359C113.342 347.762 112.844 347.463 112.172 347.463C111.641 347.463 111.227 347.668 110.93 348.078C110.633 348.488 110.484 349.096 110.484 349.9ZM119.068 353.117C118.209 353.117 117.51 352.836 116.971 352.273C116.432 351.707 116.162 350.951 116.162 350.006V349.807C116.162 349.178 116.281 348.617 116.52 348.125C116.762 347.629 117.098 347.242 117.527 346.965C117.961 346.684 118.43 346.543 118.934 346.543C119.758 346.543 120.398 346.814 120.855 347.357C121.312 347.9 121.541 348.678 121.541 349.689V350.141H117.246C117.262 350.766 117.443 351.271 117.791 351.658C118.143 352.041 118.588 352.232 119.127 352.232C119.51 352.232 119.834 352.154 120.1 351.998C120.365 351.842 120.598 351.635 120.797 351.377L121.459 351.893C120.928 352.709 120.131 353.117 119.068 353.117ZM118.934 347.434C118.496 347.434 118.129 347.594 117.832 347.914C117.535 348.23 117.352 348.676 117.281 349.25H120.457V349.168C120.426 348.617 120.277 348.191 120.012 347.891C119.746 347.586 119.387 347.434 118.934 347.434ZM124.072 350.598C124.08 350.133 124.133 349.766 124.23 349.496C124.328 349.227 124.527 348.928 124.828 348.6L125.596 347.809C125.924 347.438 126.088 347.039 126.088 346.613C126.088 346.203 125.98 345.883 125.766 345.652C125.551 345.418 125.238 345.301 124.828 345.301C124.43 345.301 124.109 345.406 123.867 345.617C123.625 345.828 123.504 346.111 123.504 346.467H122.42C122.428 345.834 122.652 345.324 123.094 344.938C123.539 344.547 124.117 344.352 124.828 344.352C125.566 344.352 126.141 344.551 126.551 344.949C126.965 345.344 127.172 345.887 127.172 346.578C127.172 347.262 126.855 347.936 126.223 348.6L125.584 349.232C125.299 349.549 125.156 350.004 125.156 350.598H124.072ZM124.025 352.455C124.025 352.279 124.078 352.133 124.184 352.016C124.293 351.895 124.453 351.834 124.664 351.834C124.875 351.834 125.035 351.895 125.145 352.016C125.254 352.133 125.309 352.279 125.309 352.455C125.309 352.631 125.254 352.777 125.145 352.895C125.035 353.008 124.875 353.064 124.664 353.064C124.453 353.064 124.293 353.008 124.184 352.895C124.078 352.777 124.025 352.631 124.025 352.455Z" fill="#5E5E5E"/>
<g filter="url(#filter0_d)">
<rect x="127" y="388" width="98" height="37" rx="18.5" fill="#EE0E0E"/>
<path d="M158.741 410.619H163.26V412H157.012V402.047H158.741V410.619ZM164.114 408.233C164.114 407.509 164.258 406.857 164.545 406.278C164.832 405.695 165.235 405.248 165.755 404.938C166.274 404.624 166.871 404.467 167.546 404.467C168.544 404.467 169.353 404.788 169.973 405.431C170.597 406.073 170.934 406.925 170.984 407.987L170.991 408.377C170.991 409.106 170.85 409.758 170.567 410.332C170.289 410.906 169.888 411.351 169.364 411.665C168.845 411.979 168.243 412.137 167.56 412.137C166.516 412.137 165.68 411.79 165.051 411.098C164.426 410.4 164.114 409.473 164.114 408.315V408.233ZM165.775 408.377C165.775 409.138 165.933 409.735 166.247 410.168C166.562 410.596 166.999 410.811 167.56 410.811C168.12 410.811 168.555 410.592 168.865 410.154C169.18 409.717 169.337 409.076 169.337 408.233C169.337 407.486 169.175 406.894 168.852 406.456C168.533 406.019 168.097 405.8 167.546 405.8C167.004 405.8 166.573 406.016 166.254 406.449C165.935 406.878 165.775 407.52 165.775 408.377ZM172.105 408.247C172.105 407.099 172.374 406.183 172.912 405.499C173.454 404.811 174.172 404.467 175.065 404.467C175.909 404.467 176.572 404.761 177.055 405.349L177.13 404.604H178.627V411.774C178.627 412.745 178.324 413.511 177.718 414.071C177.116 414.632 176.303 414.912 175.277 414.912C174.735 414.912 174.204 414.798 173.685 414.57C173.17 414.347 172.778 414.053 172.509 413.688L173.295 412.69C173.805 413.297 174.434 413.6 175.182 413.6C175.733 413.6 176.168 413.449 176.487 413.148C176.806 412.852 176.966 412.415 176.966 411.836V411.337C176.487 411.87 175.849 412.137 175.052 412.137C174.186 412.137 173.477 411.793 172.926 411.104C172.379 410.416 172.105 409.464 172.105 408.247ZM173.76 408.391C173.76 409.133 173.91 409.719 174.211 410.147C174.516 410.571 174.938 410.783 175.476 410.783C176.146 410.783 176.642 410.496 176.966 409.922V406.668C176.651 406.107 176.159 405.827 175.489 405.827C174.942 405.827 174.516 406.044 174.211 406.477C173.91 406.91 173.76 407.548 173.76 408.391ZM185.812 412H184.089V402.047H185.812V412ZM189.318 404.604L189.366 405.458C189.913 404.797 190.631 404.467 191.52 404.467C193.06 404.467 193.844 405.349 193.871 407.112V412H192.21V407.208C192.21 406.739 192.107 406.392 191.902 406.169C191.702 405.941 191.371 405.827 190.911 405.827C190.241 405.827 189.742 406.13 189.414 406.736V412H187.753V404.604H189.318Z" fill="white"/>
</g>
<path d="M98.9902 445V436.469H101.398C102.141 436.469 102.797 436.633 103.367 436.961C103.938 437.289 104.377 437.756 104.686 438.361C104.998 438.967 105.156 439.662 105.16 440.447V440.992C105.16 441.797 105.004 442.502 104.691 443.107C104.383 443.713 103.939 444.178 103.361 444.502C102.787 444.826 102.117 444.992 101.352 445H98.9902ZM100.115 437.395V444.08H101.299C102.166 444.08 102.84 443.811 103.32 443.271C103.805 442.732 104.047 441.965 104.047 440.969V440.471C104.047 439.502 103.818 438.75 103.361 438.215C102.908 437.676 102.264 437.402 101.428 437.395H100.115ZM106.408 441.771C106.408 441.15 106.529 440.592 106.771 440.096C107.018 439.6 107.357 439.217 107.791 438.947C108.229 438.678 108.727 438.543 109.285 438.543C110.148 438.543 110.846 438.842 111.377 439.439C111.912 440.037 112.18 440.832 112.18 441.824V441.9C112.18 442.518 112.061 443.072 111.822 443.564C111.588 444.053 111.25 444.434 110.809 444.707C110.371 444.98 109.867 445.117 109.297 445.117C108.438 445.117 107.74 444.818 107.205 444.221C106.674 443.623 106.408 442.832 106.408 441.848V441.771ZM107.498 441.9C107.498 442.604 107.66 443.168 107.984 443.594C108.312 444.02 108.75 444.232 109.297 444.232C109.848 444.232 110.285 444.018 110.609 443.588C110.934 443.154 111.096 442.549 111.096 441.771C111.096 441.076 110.93 440.514 110.598 440.084C110.27 439.65 109.832 439.434 109.285 439.434C108.75 439.434 108.318 439.646 107.99 440.072C107.662 440.498 107.498 441.107 107.498 441.9ZM114.564 438.66L114.6 439.457C115.084 438.848 115.717 438.543 116.498 438.543C117.838 438.543 118.514 439.299 118.525 440.811V445H117.441V440.805C117.438 440.348 117.332 440.01 117.125 439.791C116.922 439.572 116.604 439.463 116.17 439.463C115.818 439.463 115.51 439.557 115.244 439.744C114.979 439.932 114.771 440.178 114.623 440.482V445H113.539V438.66H114.564ZM121.631 437.125V438.66H122.814V439.498H121.631V443.43C121.631 443.684 121.684 443.875 121.789 444.004C121.895 444.129 122.074 444.191 122.328 444.191C122.453 444.191 122.625 444.168 122.844 444.121V445C122.559 445.078 122.281 445.117 122.012 445.117C121.527 445.117 121.162 444.971 120.916 444.678C120.67 444.385 120.547 443.969 120.547 443.43V439.498H119.393V438.66H120.547V437.125H121.631ZM128.146 439.428C128.627 438.838 129.252 438.543 130.021 438.543C131.361 438.543 132.037 439.299 132.049 440.811V445H130.965V440.805C130.961 440.348 130.855 440.01 130.648 439.791C130.445 439.572 130.127 439.463 129.693 439.463C129.342 439.463 129.033 439.557 128.768 439.744C128.502 439.932 128.295 440.178 128.146 440.482V445H127.062V436H128.146V439.428ZM137.586 445C137.523 444.875 137.473 444.652 137.434 444.332C136.93 444.855 136.328 445.117 135.629 445.117C135.004 445.117 134.49 444.941 134.088 444.59C133.689 444.234 133.49 443.785 133.49 443.242C133.49 442.582 133.74 442.07 134.24 441.707C134.744 441.34 135.451 441.156 136.361 441.156H137.416V440.658C137.416 440.279 137.303 439.979 137.076 439.756C136.85 439.529 136.516 439.416 136.074 439.416C135.688 439.416 135.363 439.514 135.102 439.709C134.84 439.904 134.709 440.141 134.709 440.418H133.619C133.619 440.102 133.73 439.797 133.953 439.504C134.18 439.207 134.484 438.973 134.867 438.801C135.254 438.629 135.678 438.543 136.139 438.543C136.869 438.543 137.441 438.727 137.855 439.094C138.27 439.457 138.484 439.959 138.5 440.6V443.518C138.5 444.1 138.574 444.562 138.723 444.906V445H137.586ZM135.787 444.174C136.127 444.174 136.449 444.086 136.754 443.91C137.059 443.734 137.279 443.506 137.416 443.225V441.924H136.566C135.238 441.924 134.574 442.312 134.574 443.09C134.574 443.43 134.688 443.695 134.914 443.887C135.141 444.078 135.432 444.174 135.787 444.174ZM142.197 443.529L143.768 438.66H144.875L142.602 445H141.775L139.479 438.66H140.586L142.197 443.529ZM148.467 445.117C147.607 445.117 146.908 444.836 146.369 444.273C145.83 443.707 145.561 442.951 145.561 442.006V441.807C145.561 441.178 145.68 440.617 145.918 440.125C146.16 439.629 146.496 439.242 146.926 438.965C147.359 438.684 147.828 438.543 148.332 438.543C149.156 438.543 149.797 438.814 150.254 439.357C150.711 439.9 150.939 440.678 150.939 441.689V442.141H146.645C146.66 442.766 146.842 443.271 147.189 443.658C147.541 444.041 147.986 444.232 148.525 444.232C148.908 444.232 149.232 444.154 149.498 443.998C149.764 443.842 149.996 443.635 150.195 443.377L150.857 443.893C150.326 444.709 149.529 445.117 148.467 445.117ZM148.332 439.434C147.895 439.434 147.527 439.594 147.23 439.914C146.934 440.23 146.75 440.676 146.68 441.25H149.855V441.168C149.824 440.617 149.676 440.191 149.41 439.891C149.145 439.586 148.785 439.434 148.332 439.434ZM159.09 445C159.027 444.875 158.977 444.652 158.938 444.332C158.434 444.855 157.832 445.117 157.133 445.117C156.508 445.117 155.994 444.941 155.592 444.59C155.193 444.234 154.994 443.785 154.994 443.242C154.994 442.582 155.244 442.07 155.744 441.707C156.248 441.34 156.955 441.156 157.865 441.156H158.92V440.658C158.92 440.279 158.807 439.979 158.58 439.756C158.354 439.529 158.02 439.416 157.578 439.416C157.191 439.416 156.867 439.514 156.605 439.709C156.344 439.904 156.213 440.141 156.213 440.418H155.123C155.123 440.102 155.234 439.797 155.457 439.504C155.684 439.207 155.988 438.973 156.371 438.801C156.758 438.629 157.182 438.543 157.643 438.543C158.373 438.543 158.945 438.727 159.359 439.094C159.773 439.457 159.988 439.959 160.004 440.6V443.518C160.004 444.1 160.078 444.562 160.227 444.906V445H159.09ZM157.291 444.174C157.631 444.174 157.953 444.086 158.258 443.91C158.562 443.734 158.783 443.506 158.92 443.225V441.924H158.07C156.742 441.924 156.078 442.312 156.078 443.09C156.078 443.43 156.191 443.695 156.418 443.887C156.645 444.078 156.936 444.174 157.291 444.174ZM162.729 438.66L162.764 439.457C163.248 438.848 163.881 438.543 164.662 438.543C166.002 438.543 166.678 439.299 166.689 440.811V445H165.605V440.805C165.602 440.348 165.496 440.01 165.289 439.791C165.086 439.572 164.768 439.463 164.334 439.463C163.982 439.463 163.674 439.557 163.408 439.744C163.143 439.932 162.936 440.178 162.787 440.482V445H161.703V438.66H162.729ZM175.215 445C175.152 444.875 175.102 444.652 175.062 444.332C174.559 444.855 173.957 445.117 173.258 445.117C172.633 445.117 172.119 444.941 171.717 444.59C171.318 444.234 171.119 443.785 171.119 443.242C171.119 442.582 171.369 442.07 171.869 441.707C172.373 441.34 173.08 441.156 173.99 441.156H175.045V440.658C175.045 440.279 174.932 439.979 174.705 439.756C174.479 439.529 174.145 439.416 173.703 439.416C173.316 439.416 172.992 439.514 172.73 439.709C172.469 439.904 172.338 440.141 172.338 440.418H171.248C171.248 440.102 171.359 439.797 171.582 439.504C171.809 439.207 172.113 438.973 172.496 438.801C172.883 438.629 173.307 438.543 173.768 438.543C174.498 438.543 175.07 438.727 175.484 439.094C175.898 439.457 176.113 439.959 176.129 440.6V443.518C176.129 444.1 176.203 444.562 176.352 444.906V445H175.215ZM173.416 444.174C173.756 444.174 174.078 444.086 174.383 443.91C174.688 443.734 174.908 443.506 175.045 443.225V441.924H174.195C172.867 441.924 172.203 442.312 172.203 443.09C172.203 443.43 172.316 443.695 172.543 443.887C172.77 444.078 173.061 444.174 173.416 444.174ZM180.371 444.232C180.758 444.232 181.096 444.115 181.385 443.881C181.674 443.646 181.834 443.354 181.865 443.002H182.891C182.871 443.365 182.746 443.711 182.516 444.039C182.285 444.367 181.977 444.629 181.59 444.824C181.207 445.02 180.801 445.117 180.371 445.117C179.508 445.117 178.82 444.83 178.309 444.256C177.801 443.678 177.547 442.889 177.547 441.889V441.707C177.547 441.09 177.66 440.541 177.887 440.061C178.113 439.58 178.438 439.207 178.859 438.941C179.285 438.676 179.787 438.543 180.365 438.543C181.076 438.543 181.666 438.756 182.135 439.182C182.607 439.607 182.859 440.16 182.891 440.84H181.865C181.834 440.43 181.678 440.094 181.396 439.832C181.119 439.566 180.775 439.434 180.365 439.434C179.814 439.434 179.387 439.633 179.082 440.031C178.781 440.426 178.631 440.998 178.631 441.748V441.953C178.631 442.684 178.781 443.246 179.082 443.641C179.383 444.035 179.812 444.232 180.371 444.232ZM186.652 444.232C187.039 444.232 187.377 444.115 187.666 443.881C187.955 443.646 188.115 443.354 188.146 443.002H189.172C189.152 443.365 189.027 443.711 188.797 444.039C188.566 444.367 188.258 444.629 187.871 444.824C187.488 445.02 187.082 445.117 186.652 445.117C185.789 445.117 185.102 444.83 184.59 444.256C184.082 443.678 183.828 442.889 183.828 441.889V441.707C183.828 441.09 183.941 440.541 184.168 440.061C184.395 439.58 184.719 439.207 185.141 438.941C185.566 438.676 186.068 438.543 186.646 438.543C187.357 438.543 187.947 438.756 188.416 439.182C188.889 439.607 189.141 440.16 189.172 440.84H188.146C188.115 440.43 187.959 440.094 187.678 439.832C187.4 439.566 187.057 439.434 186.646 439.434C186.096 439.434 185.668 439.633 185.363 440.031C185.062 440.426 184.912 440.998 184.912 441.748V441.953C184.912 442.684 185.062 443.246 185.363 443.641C185.664 444.035 186.094 444.232 186.652 444.232ZM190.104 441.771C190.104 441.15 190.225 440.592 190.467 440.096C190.713 439.6 191.053 439.217 191.486 438.947C191.924 438.678 192.422 438.543 192.98 438.543C193.844 438.543 194.541 438.842 195.072 439.439C195.607 440.037 195.875 440.832 195.875 441.824V441.9C195.875 442.518 195.756 443.072 195.518 443.564C195.283 444.053 194.945 444.434 194.504 444.707C194.066 444.98 193.562 445.117 192.992 445.117C192.133 445.117 191.436 444.818 190.9 444.221C190.369 443.623 190.104 442.832 190.104 441.848V441.771ZM191.193 441.9C191.193 442.604 191.355 443.168 191.68 443.594C192.008 444.02 192.445 444.232 192.992 444.232C193.543 444.232 193.98 444.018 194.305 443.588C194.629 443.154 194.791 442.549 194.791 441.771C194.791 441.076 194.625 440.514 194.293 440.084C193.965 439.65 193.527 439.434 192.98 439.434C192.445 439.434 192.014 439.646 191.686 440.072C191.357 440.498 191.193 441.107 191.193 441.9ZM201.148 444.373C200.727 444.869 200.107 445.117 199.291 445.117C198.615 445.117 198.1 444.922 197.744 444.531C197.393 444.137 197.215 443.555 197.211 442.785V438.66H198.295V442.756C198.295 443.717 198.686 444.197 199.467 444.197C200.295 444.197 200.846 443.889 201.119 443.271V438.66H202.203V445H201.172L201.148 444.373ZM204.881 438.66L204.916 439.457C205.4 438.848 206.033 438.543 206.814 438.543C208.154 438.543 208.83 439.299 208.842 440.811V445H207.758V440.805C207.754 440.348 207.648 440.01 207.441 439.791C207.238 439.572 206.92 439.463 206.486 439.463C206.135 439.463 205.826 439.557 205.561 439.744C205.295 439.932 205.088 440.178 204.939 440.482V445H203.855V438.66H204.881ZM211.947 437.125V438.66H213.131V439.498H211.947V443.43C211.947 443.684 212 443.875 212.105 444.004C212.211 444.129 212.391 444.191 212.645 444.191C212.77 444.191 212.941 444.168 213.16 444.121V445C212.875 445.078 212.598 445.117 212.328 445.117C211.844 445.117 211.479 444.971 211.232 444.678C210.986 444.385 210.863 443.969 210.863 443.43V439.498H209.709V438.66H210.863V437.125H211.947ZM215.674 442.598C215.682 442.133 215.734 441.766 215.832 441.496C215.93 441.227 216.129 440.928 216.43 440.6L217.197 439.809C217.525 439.438 217.689 439.039 217.689 438.613C217.689 438.203 217.582 437.883 217.367 437.652C217.152 437.418 216.84 437.301 216.43 437.301C216.031 437.301 215.711 437.406 215.469 437.617C215.227 437.828 215.105 438.111 215.105 438.467H214.021C214.029 437.834 214.254 437.324 214.695 436.938C215.141 436.547 215.719 436.352 216.43 436.352C217.168 436.352 217.742 436.551 218.152 436.949C218.566 437.344 218.773 437.887 218.773 438.578C218.773 439.262 218.457 439.936 217.824 440.6L217.186 441.232C216.9 441.549 216.758 442.004 216.758 442.598H215.674ZM215.627 444.455C215.627 444.279 215.68 444.133 215.785 444.016C215.895 443.895 216.055 443.834 216.266 443.834C216.477 443.834 216.637 443.895 216.746 444.016C216.855 444.133 216.91 444.279 216.91 444.455C216.91 444.631 216.855 444.777 216.746 444.895C216.637 445.008 216.477 445.064 216.266 445.064C216.055 445.064 215.895 445.008 215.785 444.895C215.68 444.777 215.627 444.631 215.627 444.455Z" fill="#5E5E5E"/>
<path d="M225.734 441.197C224.77 440.92 224.066 440.58 223.625 440.178C223.188 439.771 222.969 439.271 222.969 438.678C222.969 438.006 223.236 437.451 223.771 437.014C224.311 436.572 225.01 436.352 225.869 436.352C226.455 436.352 226.977 436.465 227.434 436.691C227.895 436.918 228.25 437.23 228.5 437.629C228.754 438.027 228.881 438.463 228.881 438.936H227.75C227.75 438.42 227.586 438.016 227.258 437.723C226.93 437.426 226.467 437.277 225.869 437.277C225.314 437.277 224.881 437.4 224.568 437.646C224.26 437.889 224.105 438.227 224.105 438.66C224.105 439.008 224.252 439.303 224.545 439.545C224.842 439.783 225.344 440.002 226.051 440.201C226.762 440.4 227.316 440.621 227.715 440.863C228.117 441.102 228.414 441.381 228.605 441.701C228.801 442.021 228.898 442.398 228.898 442.832C228.898 443.523 228.629 444.078 228.09 444.496C227.551 444.91 226.83 445.117 225.928 445.117C225.342 445.117 224.795 445.006 224.287 444.783C223.779 444.557 223.387 444.248 223.109 443.857C222.836 443.467 222.699 443.023 222.699 442.527H223.83C223.83 443.043 224.02 443.451 224.398 443.752C224.781 444.049 225.291 444.197 225.928 444.197C226.521 444.197 226.977 444.076 227.293 443.834C227.609 443.592 227.768 443.262 227.768 442.844C227.768 442.426 227.621 442.104 227.328 441.877C227.035 441.646 226.504 441.42 225.734 441.197ZM231.354 445H230.27V438.66H231.354V445ZM230.182 436.979C230.182 436.803 230.234 436.654 230.34 436.533C230.449 436.412 230.609 436.352 230.82 436.352C231.031 436.352 231.191 436.412 231.301 436.533C231.41 436.654 231.465 436.803 231.465 436.979C231.465 437.154 231.41 437.301 231.301 437.418C231.191 437.535 231.031 437.594 230.82 437.594C230.609 437.594 230.449 437.535 230.34 437.418C230.234 437.301 230.182 437.154 230.182 436.979ZM232.836 441.777C232.836 440.789 233.064 440.004 233.521 439.422C233.979 438.836 234.584 438.543 235.338 438.543C236.111 438.543 236.715 438.816 237.148 439.363L237.201 438.66H238.191V444.848C238.191 445.668 237.947 446.314 237.459 446.787C236.975 447.26 236.322 447.496 235.502 447.496C235.045 447.496 234.598 447.398 234.16 447.203C233.723 447.008 233.389 446.74 233.158 446.4L233.721 445.75C234.186 446.324 234.754 446.611 235.426 446.611C235.953 446.611 236.363 446.463 236.656 446.166C236.953 445.869 237.102 445.451 237.102 444.912V444.367C236.668 444.867 236.076 445.117 235.326 445.117C234.584 445.117 233.982 444.818 233.521 444.221C233.064 443.623 232.836 442.809 232.836 441.777ZM233.926 441.9C233.926 442.615 234.072 443.178 234.365 443.588C234.658 443.994 235.068 444.197 235.596 444.197C236.279 444.197 236.781 443.887 237.102 443.266V440.371C236.77 439.766 236.271 439.463 235.607 439.463C235.08 439.463 234.668 439.668 234.371 440.078C234.074 440.488 233.926 441.096 233.926 441.9ZM240.857 438.66L240.893 439.457C241.377 438.848 242.01 438.543 242.791 438.543C244.131 438.543 244.807 439.299 244.818 440.811V445H243.734V440.805C243.73 440.348 243.625 440.01 243.418 439.791C243.215 439.572 242.896 439.463 242.463 439.463C242.111 439.463 241.803 439.557 241.537 439.744C241.271 439.932 241.064 440.178 240.916 440.482V445H239.832V438.66H240.857ZM253.344 444.373C252.922 444.869 252.303 445.117 251.486 445.117C250.811 445.117 250.295 444.922 249.939 444.531C249.588 444.137 249.41 443.555 249.406 442.785V438.66H250.49V442.756C250.49 443.717 250.881 444.197 251.662 444.197C252.49 444.197 253.041 443.889 253.314 443.271V438.66H254.398V445H253.367L253.344 444.373ZM261.406 441.9C261.406 442.865 261.186 443.643 260.744 444.232C260.303 444.822 259.705 445.117 258.951 445.117C258.182 445.117 257.576 444.873 257.135 444.385V447.438H256.051V438.66H257.041L257.094 439.363C257.535 438.816 258.148 438.543 258.934 438.543C259.695 438.543 260.297 438.83 260.738 439.404C261.184 439.979 261.406 440.777 261.406 441.801V441.9ZM260.322 441.777C260.322 441.062 260.17 440.498 259.865 440.084C259.561 439.67 259.143 439.463 258.611 439.463C257.955 439.463 257.463 439.754 257.135 440.336V443.365C257.459 443.943 257.955 444.232 258.623 444.232C259.143 444.232 259.555 444.027 259.859 443.617C260.168 443.203 260.322 442.59 260.322 441.777Z" fill="#007CC1"/>
<ellipse cx="38.2143" cy="33.6" rx="18.2143" ry="13.6" fill="#FF6969"/>
<ellipse cx="61.0429" cy="47.8071" rx="4.85714" ry="3.27857" fill="#FC4040"/>
<ellipse cx="72.3357" cy="51.8143" rx="2.30714" ry="2.18571" fill="#FF6969"/>
<path d="M137.204 137V110.9H141.164V133.256H154.124V137H137.204ZM155.296 129.44C155.296 128.36 155.5 127.34 155.908 126.38C156.34 125.42 156.916 124.592 157.636 123.896C158.356 123.176 159.196 122.612 160.156 122.204C161.14 121.772 162.196 121.556 163.324 121.556C164.452 121.556 165.496 121.772 166.456 122.204C167.44 122.612 168.28 123.176 168.976 123.896C169.696 124.592 170.248 125.42 170.632 126.38C171.04 127.34 171.244 128.36 171.244 129.44C171.244 130.52 171.04 131.54 170.632 132.5C170.248 133.46 169.696 134.3 168.976 135.02C168.28 135.74 167.44 136.316 166.456 136.748C165.496 137.156 164.44 137.36 163.288 137.36C162.184 137.36 161.14 137.168 160.156 136.784C159.196 136.4 158.356 135.86 157.636 135.164C156.916 134.468 156.34 133.64 155.908 132.68C155.5 131.696 155.296 130.616 155.296 129.44ZM158.356 129.476C158.356 130.148 158.476 130.784 158.716 131.384C158.98 131.96 159.328 132.476 159.76 132.932C160.216 133.364 160.732 133.712 161.308 133.976C161.908 134.216 162.544 134.336 163.216 134.336C163.888 134.336 164.524 134.216 165.124 133.976C165.724 133.712 166.24 133.364 166.672 132.932C167.128 132.476 167.488 131.96 167.752 131.384C168.016 130.784 168.148 130.148 168.148 129.476C168.148 128.804 168.016 128.168 167.752 127.568C167.488 126.968 167.128 126.452 166.672 126.02C166.24 125.564 165.724 125.216 165.124 124.976C164.524 124.712 163.888 124.58 163.216 124.58C162.544 124.58 161.908 124.712 161.308 124.976C160.732 125.216 160.216 125.564 159.76 126.02C159.328 126.452 158.98 126.968 158.716 127.568C158.476 128.168 158.356 128.804 158.356 129.476ZM173.507 129.512C173.507 128.384 173.711 127.34 174.119 126.38C174.527 125.396 175.079 124.556 175.775 123.86C176.471 123.14 177.287 122.576 178.223 122.168C179.159 121.76 180.155 121.556 181.211 121.556C182.027 121.556 182.747 121.664 183.371 121.88C184.019 122.096 184.559 122.348 184.991 122.636C185.423 122.924 185.759 123.212 185.999 123.5C186.263 123.764 186.431 123.956 186.503 124.076C186.503 123.74 186.527 123.392 186.575 123.032C186.623 122.648 186.647 122.288 186.647 121.952H189.599V136.316C189.599 138.812 188.867 140.756 187.403 142.148C185.939 143.54 183.959 144.236 181.463 144.236C180.599 144.236 179.819 144.14 179.123 143.948C178.451 143.78 177.827 143.552 177.251 143.264C176.699 142.976 176.183 142.64 175.703 142.256C175.247 141.872 174.791 141.476 174.335 141.068L176.315 138.98C177.059 139.676 177.815 140.228 178.583 140.636C179.375 141.044 180.311 141.248 181.391 141.248C182.999 141.248 184.247 140.864 185.135 140.096C186.023 139.328 186.479 138.26 186.503 136.892V135.848C186.503 135.656 186.527 135.452 186.575 135.236C186.623 134.996 186.647 134.816 186.647 134.696C186.431 134.984 186.155 135.296 185.819 135.632C185.507 135.944 185.135 136.232 184.703 136.496C184.271 136.736 183.767 136.94 183.191 137.108C182.615 137.276 181.967 137.36 181.247 137.36C180.119 137.36 179.087 137.156 178.151 136.748C177.215 136.34 176.399 135.788 175.703 135.092C175.007 134.372 174.467 133.544 174.083 132.608C173.699 131.648 173.507 130.616 173.507 129.512ZM176.603 129.44C176.603 130.136 176.723 130.784 176.963 131.384C177.227 131.984 177.575 132.5 178.007 132.932C178.439 133.364 178.955 133.712 179.555 133.976C180.155 134.216 180.815 134.336 181.535 134.336C182.255 134.336 182.915 134.216 183.515 133.976C184.139 133.712 184.667 133.364 185.099 132.932C185.555 132.476 185.903 131.96 186.143 131.384C186.383 130.784 186.503 130.136 186.503 129.44C186.503 128.744 186.383 128.108 186.143 127.532C185.903 126.932 185.555 126.416 185.099 125.984C184.667 125.552 184.139 125.216 183.515 124.976C182.915 124.712 182.255 124.58 181.535 124.58C180.815 124.58 180.155 124.712 179.555 124.976C178.955 125.216 178.439 125.552 178.007 125.984C177.575 126.416 177.227 126.932 176.963 127.532C176.723 128.108 176.603 128.744 176.603 129.44ZM203.263 110.9H207.187V137H203.263V110.9ZM212.273 121.952H214.973C215.021 122.696 215.057 123.38 215.081 124.004C215.129 124.604 215.177 125.204 215.225 125.804C215.777 124.508 216.557 123.476 217.565 122.708C218.597 121.94 219.857 121.556 221.345 121.556C222.857 121.556 224.069 121.976 224.981 122.816C225.893 123.656 226.373 124.736 226.421 126.056V137H223.325V127.46C223.277 126.692 223.013 126.044 222.533 125.516C222.053 124.964 221.297 124.664 220.265 124.616C219.545 124.616 218.885 124.748 218.285 125.012C217.685 125.252 217.169 125.588 216.737 126.02C216.305 126.452 215.957 126.968 215.693 127.568C215.453 128.168 215.333 128.828 215.333 129.548V137H212.273V121.952Z" fill="#282828"/>
<g filter="url(#filter1_d)">
<path d="M73.611 562.083H72V562H54V570H65.303C63.654 574.657 59.223 578 54 578C47.373 578 42 572.627 42 566C42 559.373 47.373 554 54 554C57.059 554 59.842 555.154 61.961 557.039L67.618 551.382C64.046 548.053 59.268 546 54 546C42.955 546 34 554.955 34 566C34 577.045 42.955 586 54 586C65.045 586 74 577.045 74 566C74 564.659 73.862 563.35 73.611 562.083Z" fill="#FFC107"/>
<path d="M36.306 556.691L42.877 561.51C44.655 557.108 48.961 554 54 554C57.059 554 59.842 555.154 61.961 557.039L67.618 551.382C64.046 548.053 59.268 546 54 546C46.318 546 39.656 550.337 36.306 556.691Z" fill="#FF3D00"/>
<path d="M54 586C59.166 586 63.86 584.023 67.409 580.808L61.219 575.57C59.1436 577.148 56.6075 578.002 54 578C48.798 578 44.381 574.683 42.717 570.054L36.195 575.079C39.505 581.556 46.227 586 54 586Z" fill="#4CAF50"/>
<path d="M73.611 562.083H72V562H54V570H65.303C64.5142 572.216 63.0934 574.153 61.216 575.571L61.219 575.569L67.409 580.807C66.971 581.205 74 576 74 566C74 564.659 73.862 563.35 73.611 562.083Z" fill="#1976D2"/>
</g>
<g clip-path="url(#clip1)" filter="url(#filter2_d)">
<path d="M201.351 590C202.814 590 204 588.814 204 587.351V544.649C204 543.186 202.814 542 201.351 542H158.649C157.186 542 156 543.186 156 544.649V587.351C156 588.814 157.186 590 158.649 590H201.351Z" fill="#395185"/>
<path d="M189.119 590V571.412H195.359L196.293 564.168H189.119V559.543C189.119 557.445 189.702 556.016 192.709 556.016L196.545 556.014V549.535C195.882 549.447 193.605 549.25 190.956 549.25C185.425 549.25 181.638 552.626 181.638 558.825V564.168H175.383V571.412H181.638V590H189.119Z" fill="white"/>
</g>
<g clip-path="url(#clip2)" filter="url(#filter3_d)">
<path d="M340.794 547.845C338.631 548.804 336.306 549.453 333.866 549.744C336.357 548.251 338.269 545.888 339.17 543.071C336.802 544.476 334.212 545.466 331.51 545.998C329.31 543.654 326.175 542.189 322.706 542.189C316.044 542.189 310.643 547.59 310.643 554.251C310.643 555.196 310.75 556.117 310.955 557C300.93 556.497 292.042 551.695 286.093 544.397C285.055 546.178 284.46 548.251 284.46 550.461C284.46 554.646 286.59 558.338 289.826 560.501C287.911 560.441 286.037 559.924 284.362 558.992C284.362 559.043 284.362 559.093 284.362 559.144C284.362 564.988 288.52 569.863 294.037 570.972C292.261 571.455 290.398 571.525 288.59 571.178C290.125 575.97 294.58 579.458 299.858 579.555C295.73 582.79 290.529 584.719 284.877 584.719C283.904 584.719 282.944 584.662 282 584.55C287.338 587.973 293.678 589.97 300.49 589.97C322.678 589.97 334.81 571.589 334.81 555.65C334.81 555.127 334.799 554.606 334.775 554.089C337.137 552.382 339.175 550.268 340.794 547.845Z" fill="#55ACEE"/>
</g>
<path d="M340 32H326" stroke="black" stroke-width="2" stroke-linecap="round" stroke-linejoin="round"/>
<path d="M340 28H322" stroke="black" stroke-width="2" stroke-linecap="round" stroke-linejoin="round"/>
<path d="M340 36H322" stroke="black" stroke-width="2" stroke-linecap="round" stroke-linejoin="round"/>
<path d="M340 40H326" stroke="black" stroke-width="2" stroke-linecap="round" stroke-linejoin="round"/>
<g clip-path="url(#clip3)">
<path d="M239.958 315.5C239.958 315.5 243.792 310.5 250.5 310.5C257.208 310.5 261.042 315.5 261.042 315.5C261.042 315.5 257.208 320.5 250.5 320.5C243.792 320.5 239.958 315.5 239.958 315.5Z" stroke="#A6A6A6" stroke-width="2" stroke-linecap="round" stroke-linejoin="round"/>
<path d="M250.5 317.375C252.088 317.375 253.375 316.536 253.375 315.5C253.375 314.464 252.088 313.625 250.5 313.625C248.912 313.625 247.625 314.464 247.625 315.5C247.625 316.536 248.912 317.375 250.5 317.375Z" stroke="#A6A6A6" stroke-width="2" stroke-linecap="round" stroke-linejoin="round"/>
</g>
</g>
<defs>
<filter id="filter0_d" x="109" y="370" width="146" height="85" filterUnits="userSpaceOnUse" color-interpolation-filters="sRGB">
<feFlood flood-opacity="0" result="BackgroundImageFix"/>
<feColorMatrix in="SourceAlpha" type="matrix" values="0 0 0 0 0 0 0 0 0 0 0 0 0 0 0 0 0 0 127 0"/>
<feOffset dx="6" dy="6"/>
<feGaussianBlur stdDeviation="12"/>
<feColorMatrix type="matrix" values="0 0 0 0 0 0 0 0 0 0 0 0 0 0 0 0 0 0 0.25 0"/>
<feBlend mode="normal" in2="BackgroundImageFix" result="effect1_dropShadow"/>
<feBlend mode="normal" in="SourceGraphic" in2="effect1_dropShadow" result="shape"/>
</filter>
<filter id="filter1_d" x="12" y="524" width="96" height="96" filterUnits="userSpaceOnUse" color-interpolation-filters="sRGB">
<feFlood flood-opacity="0" result="BackgroundImageFix"/>
<feColorMatrix in="SourceAlpha" type="matrix" values="0 0 0 0 0 0 0 0 0 0 0 0 0 0 0 0 0 0 127 0"/>
<feOffset dx="6" dy="6"/>
<feGaussianBlur stdDeviation="12"/>
<feColorMatrix type="matrix" values="0 0 0 0 0 0 0 0 0 0 0 0 0 0 0 0 0 0 0.25 0"/>
<feBlend mode="normal" in2="BackgroundImageFix" result="effect1_dropShadow"/>
<feBlend mode="normal" in="SourceGraphic" in2="effect1_dropShadow" result="shape"/>
</filter>
<filter id="filter2_d" x="138" y="524" width="96" height="96" filterUnits="userSpaceOnUse" color-interpolation-filters="sRGB">
<feFlood flood-opacity="0" result="BackgroundImageFix"/>
<feColorMatrix in="SourceAlpha" type="matrix" values="0 0 0 0 0 0 0 0 0 0 0 0 0 0 0 0 0 0 127 0"/>
<feOffset dx="6" dy="6"/>
<feGaussianBlur stdDeviation="12"/>
<feColorMatrix type="matrix" values="0 0 0 0 0 0 0 0 0 0 0 0 0 0 0 0 0 0 0.25 0"/>
<feBlend mode="normal" in2="BackgroundImageFix" result="effect1_dropShadow"/>
<feBlend mode="normal" in="SourceGraphic" in2="effect1_dropShadow" result="shape"/>
</filter>
<filter id="filter3_d" x="264" y="524" width="106.794" height="96" filterUnits="userSpaceOnUse" color-interpolation-filters="sRGB">
<feFlood flood-opacity="0" result="BackgroundImageFix"/>
<feColorMatrix in="SourceAlpha" type="matrix" values="0 0 0 0 0 0 0 0 0 0 0 0 0 0 0 0 0 0 127 0"/>
<feOffset dx="6" dy="6"/>
<feGaussianBlur stdDeviation="12"/>
<feColorMatrix type="matrix" values="0 0 0 0 0 0 0 0 0 0 0 0 0 0 0 0 0 0 0.25 0"/>
<feBlend mode="normal" in2="BackgroundImageFix" result="effect1_dropShadow"/>
<feBlend mode="normal" in="SourceGraphic" in2="effect1_dropShadow" result="shape"/>
</filter>
<clipPath id="clip0">
<rect width="360" height="640" fill="white"/>
</clipPath>
<clipPath id="clip1">
<rect width="48" height="48" fill="white" transform="translate(156 542)"/>
</clipPath>
<clipPath id="clip2">
<rect width="58.7943" height="48" fill="white" transform="translate(282 542)"/>
</clipPath>
<clipPath id="clip3">
<rect width="23" height="15" fill="white" transform="translate(239 308)"/>
</clipPath>
</defs>
</svg>
